<mxfile host="app.diagrams.net" modified="2024-01-17T07:44:05.487Z" agent="Mozilla/5.0 (Macintosh; Intel Mac OS X 10_15_7) AppleWebKit/537.36 (KHTML, like Gecko) Chrome/120.0.0.0 Safari/537.36" etag="Drs6XLR0JrZMWZeYICAq" version="22.1.20" type="github">
  <diagram name="第 1 页" id="AWUjClWmz-XhPsFE_Eon">
    <mxGraphModel dx="1026" dy="589" grid="0" gridSize="10" guides="1" tooltips="1" connect="1" arrows="1" fold="1" page="0" pageScale="1" pageWidth="1200" pageHeight="1920" math="0" shadow="0">
      <root>
        <mxCell id="0" />
        <mxCell id="1" parent="0" />
        <mxCell id="LfMUR8XexmlNwJJn7UKP-6" value="" style="edgeStyle=orthogonalEdgeStyle;rounded=0;orthogonalLoop=1;jettySize=auto;html=1;" edge="1" parent="1" source="LfMUR8XexmlNwJJn7UKP-4" target="LfMUR8XexmlNwJJn7UKP-5">
          <mxGeometry relative="1" as="geometry" />
        </mxCell>
        <mxCell id="LfMUR8XexmlNwJJn7UKP-4" value="Raw data" style="rounded=1;whiteSpace=wrap;html=1;" vertex="1" parent="1">
          <mxGeometry x="240" y="222" width="120" height="60" as="geometry" />
        </mxCell>
        <mxCell id="LfMUR8XexmlNwJJn7UKP-8" value="" style="edgeStyle=orthogonalEdgeStyle;rounded=0;orthogonalLoop=1;jettySize=auto;html=1;" edge="1" parent="1" source="LfMUR8XexmlNwJJn7UKP-5" target="LfMUR8XexmlNwJJn7UKP-7">
          <mxGeometry relative="1" as="geometry" />
        </mxCell>
        <mxCell id="LfMUR8XexmlNwJJn7UKP-5" value="CER" style="whiteSpace=wrap;html=1;rounded=1;" vertex="1" parent="1">
          <mxGeometry x="440" y="222" width="120" height="60" as="geometry" />
        </mxCell>
        <mxCell id="LfMUR8XexmlNwJJn7UKP-7" value="CE" style="whiteSpace=wrap;html=1;rounded=1;" vertex="1" parent="1">
          <mxGeometry x="640" y="222" width="120" height="60" as="geometry" />
        </mxCell>
        <mxCell id="LfMUR8XexmlNwJJn7UKP-10" style="edgeStyle=orthogonalEdgeStyle;rounded=0;orthogonalLoop=1;jettySize=auto;html=1;" edge="1" parent="1" source="LfMUR8XexmlNwJJn7UKP-9" target="LfMUR8XexmlNwJJn7UKP-5">
          <mxGeometry relative="1" as="geometry" />
        </mxCell>
        <mxCell id="LfMUR8XexmlNwJJn7UKP-9" value="Pattern" style="rounded=1;whiteSpace=wrap;html=1;" vertex="1" parent="1">
          <mxGeometry x="440" y="88" width="120" height="60" as="geometry" />
        </mxCell>
        <mxCell id="LfMUR8XexmlNwJJn7UKP-11" value="&lt;h1&gt;Question&lt;/h1&gt;&lt;p&gt;Q1: Some events like rollover, is typically a durative event. Traditional CER system like FlinkCEP using timestamp based event regonizition is not effecient represent interval event. Such a treatment allows the detection of ongoing activities, while avoiding the unintended ssemantics of using single time-points (Giatrakos et al. 2020 )&lt;/p&gt;" style="text;html=1;strokeColor=none;fillColor=none;spacing=5;spacingTop=-20;whiteSpace=wrap;overflow=hidden;rounded=0;" vertex="1" parent="1">
          <mxGeometry x="249" y="307" width="471" height="125" as="geometry" />
        </mxCell>
      </root>
    </mxGraphModel>
  </diagram>
</mxfile>
